<svg id="Capa_1" enable-background="new 0 0 511.978 511.978" height="512" viewBox="0 0 511.978 511.978" width="512" xmlns="http://www.w3.org/2000/svg"><g><g><path d="m7.962 401.393 22.177-211.621c.63-6.017 3.636-11.53 8.344-15.33 4.711-3.796 10.741-5.558 16.754-4.896l70.377 7.75c12.48 1.373 21.482 12.604 20.108 25.083-1.376 12.48-12.607 21.481-25.086 20.107l-47.66-5.248-15.04 143.522z" fill="#de5c6e"/><path d="m401.085 8.293-211.633 22.175c-6.017.63-11.531 3.636-15.331 8.343-3.796 4.711-5.559 10.74-4.896 16.753l7.751 70.373c1.374 12.479 12.605 21.481 25.085 20.107 12.481-1.376 21.482-12.606 20.108-25.084l-5.249-47.657 143.531-15.04z" fill="#de5c6e"/><g><path d="m504.395 122.08c-1.049-41.332-12.13-71.393-32.94-89.374-34.145-33.412-89.092-33.195-122.943.655-14.193 14.192-22.814 32.454-24.99 51.798-19.365 2.196-37.668 10.857-51.915 25.103-.058.058-.117.117-.175.175-16.68 16.679-25.941 39.901-25.369 63.706.074 3.095.324 6.17.723 9.216-14.498 4.621-28.138 12.645-39.62 24.125-11.482 11.481-19.506 25.12-24.127 39.618-3.047-.399-6.123-.649-9.218-.723-23.807-.572-47.029 8.688-63.71 25.367-.059.059-.117.117-.175.176-14.247 14.246-22.908 32.548-25.104 51.912-19.345 2.176-37.608 10.797-51.801 24.988-33.851 33.849-34.068 88.793-.655 122.936 17.983 20.809 48.046 31.889 89.38 32.938 31.856.809 64.537-4.442 86.345-8.989 8.38-1.746 15.028-3.366 19.129-4.417 2.391-.613 4.262-1.119 5.536-1.478.599-.168 1.411-.397 2.363-.724 2.058-.656 4.835-1.851 7.523-3.991.676-.529 1.345-1.114 1.994-1.763 2.279-2.279 4.312-5.345 5.539-9.486.058-.201.119-.403.177-.607 1.109-3.886 10.939-39.131 14.389-79.572 4.791-56.168-4.923-96.304-28.869-119.315-3.267-3.539-6.828-6.762-10.608-9.684 2.211-9.182 6.89-17.885 14.043-25.038s15.856-11.831 25.038-14.042c2.922 3.78 6.146 7.342 9.685 10.608 23.013 23.945 63.151 33.659 119.322 28.867 40.444-3.449 75.691-13.279 79.577-14.388.205-.058.406-.119.606-.181 4.142-1.222 7.208-3.255 9.488-5.534.649-.649 1.235-1.318 1.763-1.994 2.14-2.688 3.335-5.465 3.991-7.523.327-.952.555-1.764.724-2.362.359-1.274.866-3.145 1.478-5.536 1.051-4.101 2.671-10.748 4.417-19.128 4.547-21.806 9.798-54.485 8.989-86.339z" fill="#e26e7e"/><g><path d="m251.719 468.25c-.61.16-1.253.328-1.955.508-4.101 1.051-10.749 2.671-19.129 4.417-21.807 4.547-54.489 9.797-86.345 8.989-41.334-1.049-71.397-12.129-89.38-32.938-29.621-30.267-32.789-76.87-9.549-110.644-4.365 3.002-8.5 6.411-12.33 10.241-33.851 33.849-34.068 88.793-.655 122.936 17.983 20.809 48.046 31.889 89.38 32.938 31.856.809 64.537-4.442 86.345-8.989 8.38-1.746 15.028-3.366 19.129-4.417 2.391-.613 4.262-1.119 5.536-1.478.599-.168 1.411-.397 2.363-.724 2.058-.656 4.835-1.851 7.523-3.991.676-.529 1.345-1.114 1.994-1.763 2.279-2.279 4.312-5.345 5.539-9.486.058-.201.119-.403.177-.607.199-.698.683-2.423 1.357-4.992z" fill="#de5c6e"/></g><path d="m484.796 242.969c2.14-2.688 3.335-5.465 3.991-7.523.752-2.282.934-3.145 1.598-5.58-32.049 7.893-65.996 14.488-107.541 13.923-41.334-1.049-71.397-12.129-89.38-32.938-29.567-30.212-32.739-77.01-9.637-110.77-4.322 2.989-8.419 6.379-12.22 10.18-.058.058-.117.117-.175.175-16.68 16.679-25.941 39.901-25.369 63.706.074 3.095.324 6.17.723 9.216 2.026 14.882 8.055 29.497 17.568 42.231 2.922 3.78 6.146 7.342 9.685 10.608 23.013 23.945 63.151 33.659 119.322 28.867 41.21-3.579 75.35-13.194 80.183-14.569 5.219-1.616 8.388-3.981 11.252-7.526z" fill="#de5c6e"/></g><g><path d="m291.517 173.05c-.28-11.634 4.079-22.465 12.193-30.594 10.203-10.202 24.648-14.451 38.687-11.414 7.554 1.634 15.419-.68 20.883-6.144s7.779-13.329 6.144-20.882c-3.038-14.038 1.163-28.434 11.238-38.508 16.351-16.35 42.966-16.339 59.329.024.463.463.946.906 1.448 1.328 14.009 11.774 19.948 41.127 16.725 82.652-1.914 24.655-6.596 47.4-9.702 60.518-12.769 3.036-34.166 7.49-57.202 9.583-41.885 3.805-71.964-1.588-84.695-15.187-.435-.464-.89-.911-1.361-1.337-8.546-7.716-13.408-18.384-13.687-30.039z" fill="#f3bfc6"/><g><g><path d="m426.794 184.08c-41.885 3.804-71.964-1.588-84.695-15.187-.435-.464-.89-.911-1.362-1.337-8.546-7.715-13.407-18.383-13.687-30.038-.057-2.371.089-4.705.409-6.993-8.847 1.276-17.18 5.361-23.75 11.93-8.114 8.13-12.473 18.96-12.193 30.594.28 11.655 5.141 22.323 13.687 30.038.472.426.926.873 1.361 1.337 12.731 13.598 42.81 18.991 84.695 15.187 23.036-2.093 44.433-6.547 57.202-9.583 1.73-7.306 3.948-17.603 5.905-29.549-8.563 1.43-17.918 2.724-27.572 3.601z" fill="#ffa1ac"/></g></g></g><g><path d="m172.729 291.83c-11.635-.28-22.466 4.078-30.596 12.192-10.203 10.202-14.452 24.646-11.414 38.684 1.635 7.553-.68 15.418-6.144 20.882s-13.33 7.778-20.883 6.144c-14.038-3.038-28.436 1.163-38.511 11.238-16.351 16.35-16.34 42.963.024 59.326.463.463.906.946 1.328 1.448 11.775 14.008 41.13 19.947 82.657 16.724 24.656-1.914 47.403-6.596 60.522-9.702 3.036-12.768 7.49-34.164 9.583-57.198 3.805-41.883-1.588-71.959-15.188-84.69-.464-.435-.911-.89-1.337-1.361-7.716-8.546-18.385-13.407-30.041-13.687z" fill="#f3bfc6"/><g><g><path d="m183.931 423.728c-41.527 3.223-70.882-2.715-82.657-16.724-.422-.502-.865-.985-1.328-1.448-9.868-9.868-13.779-23.461-11.751-36.285-8.606 1.344-16.668 5.353-23.014 11.699-16.351 16.35-16.34 42.963.023 59.326.463.463.906.946 1.328 1.448 11.775 14.008 41.13 19.947 82.657 16.724 24.656-1.914 47.403-6.596 60.522-9.702 1.73-7.277 3.92-17.362 5.872-28.949-9.681 1.602-20.464 3.042-31.652 3.911z" fill="#ffa1ac"/></g></g></g></g><g><path d="m334.73 175.024c-2.929 2.93-2.929 7.679 0 10.609l7.563 7.563c1.465 1.464 3.385 2.197 5.305 2.197 1.919 0 3.84-.733 5.305-2.197 2.929-2.93 2.929-7.679 0-10.609l-7.563-7.563c-2.931-2.928-7.68-2.928-10.61 0z"/><path d="m421.011 114.48c1.465 1.464 3.385 2.197 5.305 2.197s3.84-.733 5.305-2.197c2.929-2.93 2.929-7.679 0-10.609l-7.563-7.563c-2.93-2.928-7.679-2.928-10.61 0-2.929 2.93-2.929 7.679 0 10.609z"/><path d="m375.84 166.169c.62.043 1.238.063 1.855.063 7.13 0 13.995-2.821 19.068-7.893 5.509-5.511 8.362-13.136 7.828-20.922-.283-4.134-3.873-7.249-7.998-6.97-4.134.284-7.254 3.865-6.97 7.998.237 3.459-1.028 6.844-3.468 9.286-2.443 2.443-5.836 3.704-9.287 3.47-4.126-.27-7.713 2.836-7.998 6.97-.284 4.133 2.837 7.714 6.97 7.998z"/><path d="m95.977 413.774c-2.93 2.93-2.93 7.679 0 10.609l7.563 7.563c1.465 1.464 3.384 2.197 5.304 2.197s3.84-.733 5.304-2.197c2.93-2.93 2.93-7.679 0-10.609l-7.563-7.563c-2.928-2.928-7.678-2.928-10.608 0z"/><path d="m182.258 353.229c1.465 1.464 3.384 2.197 5.304 2.197s3.84-.733 5.304-2.197c2.93-2.93 2.93-7.679 0-10.609l-7.563-7.563c-2.929-2.928-7.679-2.928-10.609 0-2.93 2.93-2.93 7.679 0 10.609z"/><path d="m137.088 404.918c.62.043 1.239.063 1.856.063 7.131 0 13.995-2.821 19.067-7.892 5.51-5.51 8.363-13.136 7.828-20.922-.284-4.134-3.865-7.236-7.998-6.97-4.133.284-7.253 3.865-6.97 7.998.238 3.459-1.027 6.844-3.469 9.286s-5.827 3.708-9.286 3.469c-4.138-.27-7.714 2.836-7.998 6.97-.284 4.133 2.837 7.714 6.97 7.998z"/><path d="m343.949 123.627c-16.538-3.578-33.586 1.446-45.59 13.451-9.599 9.618-14.707 22.423-14.386 36.059.232 13.232 6.227 25.897 17.341 36.628 14.647 16.512 60.006 21.041 90.6 17.266 23.047-2.094 44.408-6.463 58.27-9.759 2.758-.656 4.911-2.811 5.564-5.57 3.459-14.604 7.98-37.162 9.884-61.688 3.295-42.449-3.47-73.953-19.049-88.708-20.913-19.808-52.216-20.338-71.252-1.209-11.888 11.889-16.848 28.866-13.267 45.413 1.101 5.087-.439 10.319-4.119 13.999-3.679 3.678-8.912 5.217-13.996 4.118zm24.605 6.489c7.302-7.301 10.359-17.686 8.174-27.78-2.497-11.54.947-23.366 9.226-31.646 13.477-13.543 35.108-12.894 50.314 1.507 12.051 11.414 17.302 39.354 14.407 76.655-1.644 21.174-5.33 40.873-8.481 54.873-13.277 3.007-31.836 6.565-51.636 8.364-37.895 3.445-66.622-1.339-78.822-13.118-8.311-8.025-12.604-16.812-12.761-26.116 0-.019-.001-.036-.001-.054-.229-9.509 3.325-18.432 10.001-25.122 8.375-8.408 20.402-11.883 31.803-9.39 10.091 2.188 20.477-.871 27.776-8.173z"/><path d="m105.197 362.405c-16.549-3.585-33.522 1.379-45.397 13.256-19.137 19.048-17.7 49.527 1.197 71.271 14.026 16.14 57.617 22.521 88.701 19.05 24.525-1.905 47.079-6.427 61.681-9.885 2.759-.653 4.914-2.806 5.569-5.565 3.296-13.861 7.664-35.223 9.758-58.276 3.893-42.864-2.238-75.042-17.264-90.61-10.729-11.115-23.394-17.112-36.625-17.343-13.633-.344-26.439 4.787-36.062 14.393-11.998 11.999-17.023 29.042-13.444 45.589 1.101 5.086-.439 10.319-4.118 14s-8.91 5.216-13.996 4.12zm24.606 6.49c7.301-7.301 10.357-17.687 8.173-27.78-2.497-11.54 1.013-23.431 9.384-31.803 6.694-6.682 15.628-10.231 25.123-10.008.018 0 .036.001.054.001 9.304.157 18.09 4.451 26.112 12.763 11.778 12.202 16.559 40.935 13.117 78.832-1.799 19.805-5.356 38.364-8.363 51.641-12.445 2.792-32.97 6.784-54.866 8.484-37.295 2.894-65.232-2.357-76.646-14.409-14.402-15.208-15.049-36.841-1.493-50.335 8.264-8.315 20.304-11.705 31.626-9.214 10.094 2.187 20.478-.87 27.779-8.172z"/><path d="m476.53 27.063c-20.6-20.064-48.24-28.833-75.007-26.382-.982-.213-211.792 22.196-212.916 22.206-8.054.843-15.296 4.783-20.395 11.101-5.013 6.222-7.387 14.345-6.512 22.286l7.752 70.398c1.756 16.632 17.078 28.636 33.368 26.751 16.574-1.827 28.572-16.797 26.747-33.372l-4.424-40.179 93.619-9.812c-.754 2.762-1.398 5.555-1.897 8.382-19.028 3.379-36.821 12.632-50.61 26.422-18.886 18.7-29.388 46.179-27.565 73.3-27.62 10.395-50.455 33.23-60.846 60.853-26.33-1.918-54.555 8.56-73.292 27.569-13.789 13.791-23.041 31.585-26.419 50.614-2.825.499-5.619 1.143-8.38 1.897l9.811-93.63c2.255.091 42.274 4.95 43.507 4.608 15.201-.002 28.332-11.478 30.035-26.934 1.825-16.575-10.174-31.545-26.748-33.37l-70.391-7.753c-7.941-.875-16.063 1.499-22.291 6.517-6.22 5.021-10.263 12.454-11.094 20.392-.025 1.269-22.4 211.813-22.202 212.923-2.456 26.775 7.022 53.756 26.377 75.031 47.147 51.825 155.596 34.243 207.758 20.262 11.236-2.693 19.987-10.835 22.851-21.266.058-.193.107-.363.156-.535.739-2.591 4.616-16.512 8.357-36.137.776-4.069-1.894-7.998-5.964-8.773-4.062-.777-7.997 1.893-8.773 5.964-3.622 18.997-7.338 32.347-8.046 34.827-.043.151-.088.3-.134.448-.044.141-.083.282-.118.425-1.756 6.053-7.263 9.374-11.867 10.467-.046.011-.092.021-.138.034-30.652 7.89-65.078 15.142-109.028 14.653-39.372-1.036-66.847-11.798-84.17-30.696-29.464-32.143-30.227-81.602.598-112.431 12.729-12.73 29.543-20.844 47.345-22.847 3.477-.392 6.221-3.133 6.615-6.61 2.021-17.826 10.175-34.685 22.982-47.493 17.192-17.367 42.398-25.973 66.816-22.673 3.6.471 7.02-1.701 8.123-5.16 8.641-27.71 31.182-50.255 58.891-58.898 3.458-1.103 5.631-4.522 5.16-8.122-3.29-24.423 5.321-49.646 22.693-66.847 12.785-12.786 29.642-20.94 47.466-22.962 3.475-.395 6.218-3.139 6.609-6.616 2.002-17.802 10.115-34.619 22.845-47.352 30.825-30.826 81.254-31.096 112.416-.597.11.108.225.213.342.315 19.147 16.548 29.359 44.784 30.352 83.922.229 8.982-.032 18.665-.776 28.779-.304 4.132 2.799 7.727 6.931 8.031 4.14.297 7.728-2.799 8.031-6.931.779-10.605 1.053-20.786.813-30.26-1.101-43.424-12.999-75.297-35.363-94.739zm-448.899 316.452c-2.502 2.502-4.818 5.123-6.981 7.828l16.854-160.853c.424-4.058 2.412-7.709 5.591-10.276 3.135-2.526 7.225-3.726 11.23-3.282l70.392 7.753c8.351.919 14.396 8.463 13.477 16.815-.92 8.353-8.461 14.397-16.813 13.479l-47.67-5.25c-1.982-.22-3.973.364-5.528 1.616-1.554 1.253-2.545 3.074-2.753 5.06l-11.369 108.492c-9.748 4.625-18.721 10.908-26.43 18.618zm296.929-289.147-108.481 11.37c-1.986.208-3.806 1.198-5.059 2.753-1.253 1.554-1.834 3.544-1.616 5.528l5.25 47.675c.92 8.351-5.126 15.896-13.476 16.816-8.359.922-15.894-5.128-16.813-13.48l-7.752-70.399c-.441-4.002.755-8.095 3.278-11.226 2.571-3.185 6.221-5.173 10.279-5.598l160.835-16.856c-11.202 8.885-20.368 20.558-26.445 33.417z"/><path d="m500.662 178.877c-4.091-.65-7.938 2.129-8.594 6.22-2.232 14.386-6.518 34.409-9.86 46.21-1.091 4.605-4.41 10.112-10.462 11.866-.087.021-.174.045-.261.069-8.868 2.523-40.758 11.012-78.783 14.315-61.586 4.311-96.608-4.285-122.46-36.604-1.808-2.336-4.817-3.394-7.692-2.706-21.702 5.027-39.6 22.929-44.626 44.63-.692 2.873.367 5.884 2.705 7.691 34.078 25.094 42.333 71.872 35.68 131.792-.456 4.118 2.512 7.826 6.63 8.282.281.031.56.047.835.047 3.773 0 7.022-2.839 7.447-6.676 7.28-62.886-2.832-114.293-37.406-142.041 4.414-12.82 15.01-23.42 27.83-27.834 25.488 33.765 81.369 43.859 132.345 38.366 39.025-3.39 71.845-12.068 81.361-14.764.058-.015.115-.029.173-.045 10.415-2.856 18.548-11.585 21.252-22.798 3.419-12.058 7.825-32.731 10.107-47.427.654-4.09-2.13-7.937-6.221-8.593z"/></g></g></svg>