<svg height="512pt" viewBox="-61 0 512 512" width="512pt" xmlns="http://www.w3.org/2000/svg"><path d="m366.898438 512h-344.40625c-12.421876 0-22.492188-10.070312-22.492188-22.492188v-467.015624c0-12.421876 10.070312-22.492188 22.492188-22.492188h272.816406l94.078125 89.453125v400.054687c.003906 12.421876-10.066407 22.492188-22.488281 22.492188zm0 0" fill="#f4f4f4"/><path d="m295.308594 0h-40.449219l94.078125 89.453125v400.054687c0 12.421876-10.066406 22.492188-22.492188 22.492188h40.449219c12.421875 0 22.492188-10.070312 22.492188-22.492188v-400.054687zm0 0" fill="#e8e8e8"/><path d="m348.9375 50.992188-53.628906-50.992188h-272.816406c-12.421876 0-22.492188 10.070312-22.492188 22.492188v28.5zm0 0" fill="#f6d867"/><path d="m265.777344 50.992188h83.160156l-53.628906-50.992188h-29.53125zm0 0" fill="#e0c55e"/><path d="m295.308594 0v66.960938c0 12.421874 10.070312 22.492187 22.492187 22.492187h71.589844zm0 0" fill="#dedcdd"/><path d="m0 369.527344v119.980468c0 12.421876 10.070312 22.492188 22.492188 22.492188h344.40625c12.421874 0 22.492187-10.070312 22.492187-22.492188v-119.980468zm0 0" fill="#f6d867"/><path d="m348.9375 489.507812c0 12.421876-10.066406 22.492188-22.492188 22.492188h40.449219c12.40625 0 22.492188-10.050781 22.492188-22.492188v-119.980468h-40.449219zm0 0" fill="#e0c55e"/><g fill="#495663"><path d="m160.144531 476.03125c14.457031 0 26.175781-11.492188 26.175781-25.675781v-37.652344c0-3.394531-2.75-6.144531-6.140624-6.144531-3.390626 0-6.140626 2.75-6.140626 6.144531v37.652344c0 15.84375-22.632812 19.445312-27.183593 3.75-.738281-2.550781-3.085938-4.414063-5.875-4.414063-4.101563 0-7.027344 3.988282-5.859375 7.902344 3.230468 10.832031 13.25 18.4375 25.023437 18.4375zm0 0"/><path d="m227.210938 464.25c-6.726563 0-13.332032-2.492188-19.179688-5.460938-3.953125-2.015624-8.632812.875-8.632812 5.300782 0 2.230468 1.234374 4.179687 3.054687 5.199218 22.9375 12.726563 52.042969 6.71875 52.042969-13.796874 0-15.203126-14.902344-18.324219-27.691406-20.640626-8.46875-1.535156-14.195313-2.316406-14.222657-7.894531-.019531-4.691406 4.054688-9.625 14.324219-9.625 11.867188 0 17.300781 5.78125 20.996094 5.78125 6.105468 0 8.210937-8.230469 2.78125-11.125-27.234375-14.523437-50.355469-2.464843-50.382813 15.480469-.027343 16.34375 16.035157 18.761719 26.503907 20.472656 9.671874 1.578125 15.40625 2.617188 15.449218 7.945313.066406 7.054687-10.210937 8.363281-15.042968 8.363281zm0 0"/></g></svg>