<?xml version="1.0" encoding="UTF-8"?>
<!-- Generator: Adobe Illustrator 25.2.1, SVG Export Plug-In . SVG Version: 6.00 Build 0)  -->
<svg xmlns="http://www.w3.org/2000/svg" xmlns:xlink="http://www.w3.org/1999/xlink" version="1.1" id="Capa_1" x="0px" y="0px" viewBox="0 0 512 512" style="enable-background:new 0 0 512 512;" xml:space="preserve" width="512" height="512">
<g>
	<g>
		<path style="fill:#FFFFFF;" d="M177.237,141.097c1.481,0.738,3.35,0.409,4.686-0.568c3.826-2.8,4.769-13.063-1.648-13.094    C174.509,127.408,172.242,138.607,177.237,141.097z"/>
	</g>
	<g>
		<g>
			<g>
				<g>
					<g>
						<path style="fill:#F8627F;" d="M462.48,327.858c-4.669-29.525-15.837-59.587-37.821-79.482        c-1.17-10.386-3.1-20.519-5.806-30.28c-16.216-58.47-58.798-104.628-112.841-122.49c6.603-18.037,17.328-34.419,31.299-47.682        c1.988,1.677,4.522,2.727,7.327,2.727c6.307,0,11.419-5.113,11.419-11.419c0-6.307-5.113-11.419-11.419-11.419        c-6.307,0-11.419,5.113-11.419,11.419c0,2.027,0.573,3.903,1.499,5.553c-14.572,13.773-25.743,30.823-32.586,49.603        c-14.603-4.416-29.989-6.81-45.898-6.81c-14.11,0-27.806,1.889-40.914,5.389c-6.883-18.22-17.862-34.757-32.067-48.182        c0.926-1.65,1.499-3.526,1.499-5.553c0-6.307-5.113-11.419-11.419-11.419c-6.307,0-11.419,5.113-11.419,11.419        c0,6.307,5.113,11.419,11.419,11.419c2.804,0,5.339-1.05,7.327-2.727c13.575,12.887,24.095,28.714,30.737,46.147        c-24.429,7.201-46.647,20.14-65.359,37.393c-1.193-17.883-6.521-34.775-22.61-33.821        c-22.582,1.341-20.197,27.436-20.083,30.675c-3.405-0.419-28.832-4.81-31.863,17.469        c-2.573,18.913,20.945,24.685,41.829,26.143c-13.253,22.277-22.178,47.837-25.428,75.32c-0.028,0.229-0.045,0.461-0.072,0.69        c-22.301,19.889-33.588,50.18-38.291,79.918c-2.196,13.906-3.192,28.117-1.017,42.022c0.203,1.26,0.427,2.521,0.691,3.761        c0.305,1.545,0.651,3.07,1.057,4.594c2.846,10.897,7.929,21.225,15.613,29.438c1.443,1.525,2.928,2.989,4.493,4.35        c0.63,0.549,1.281,1.098,1.952,1.627c6.119,4.92,13.011,8.498,20.249,10.307c0.691,0.183,1.383,0.346,2.074,0.468        c6.567,1.342,13.418,1.24,20.188-0.63c0.793-0.203,1.606-0.447,2.399-0.711c0.711-0.244,1.443-0.509,2.155-0.793        c5.001-1.972,9.616-4.94,13.804-8.62c0.589-0.499,1.147-1.043,1.714-1.574c-6.376,9.91-11.371,20.697-14.778,31.976        c-2.643,4.073-4.281,8.798-4.706,13.636c-0.229,2.604,0.345,6.961,2.57,6.887c1.131-0.17,1.45-2.725,1.536-4.25        c0.549,1.482,1.133,3.017,2.274,4.111c1.141,1.093,3.013,1.598,4.325,0.717c1.174-0.788,1.521-2.426,1.194-3.802        c-0.217-0.914-0.678-1.737-1.204-2.523c0.963,0.315,2.445,0.085,3.274-0.326c1.201-0.595,1.829-2.009,1.826-3.349        c-0.003-1.34-0.532-2.621-1.137-3.817c-1.486-2.939-4.096-5.274-6.741-7.395c4.184-13.44,10.694-26.139,19.127-37.406        c10.596,10.321,22.405,19.226,35.167,26.449c5.931,3.35,12.069,6.33,18.386,8.917l-8.273,42.17        c-5.153,2.276-10.305,4.551-15.458,6.827c-1.026,0.453-2.148,1.003-2.552,2.05c-0.493,1.277,0.394,2.765,1.622,3.37        c1.228,0.605,2.674,0.534,4.029,0.341c5.314-0.758,10.358-3.242,14.223-6.965c0.062-0.046,0.114-0.101,0.17-0.156        c0.054-0.053,0.114-0.101,0.168-0.155c-0.001-0.01-0.003-0.023-0.004-0.034c0.148-0.196,0.269-0.414,0.319-0.671l8.932-45.53        c15.754,6.064,32.58,9.683,50.1,10.443l18.984,38.07l19.054-40.996c10.055-2.008,19.792-4.977,29.139-8.808l9.185,46.822        c0.05,0.257,0.171,0.475,0.319,0.671c-0.001,0.01-0.003,0.024-0.004,0.034c0.054,0.054,0.114,0.101,0.168,0.155        c0.055,0.055,0.107,0.11,0.169,0.156c3.865,3.723,8.909,6.207,14.223,6.965c1.355,0.193,2.801,0.265,4.029-0.341        c1.228-0.605,2.114-2.093,1.622-3.37c-0.403-1.047-1.526-1.597-2.552-2.05c-5.152-2.276-10.305-4.551-15.457-6.827        l-8.536-43.511c15.177-6.599,29.267-15.497,41.899-26.3c3.267-2.786,6.4-5.743,9.465-8.779        c1.624,1.985,3.311,3.901,5.111,5.669c0.874,0.874,1.789,1.708,2.724,2.501c4.188,3.68,8.803,6.648,13.804,8.62        c0.712,0.284,1.444,0.549,2.155,0.793c0.301,0.1,0.606,0.177,0.911,0.27c1.396,4.048,2.594,8.16,3.56,12.33        c-2.794,1.919-5.57,4.055-7.269,6.877c-0.691,1.148-1.314,2.386-1.416,3.723c-0.102,1.336,0.42,2.793,1.573,3.475        c0.797,0.471,2.258,0.81,3.241,0.567c-0.583,0.744-1.104,1.531-1.388,2.427c-0.427,1.348-0.203,3.007,0.91,3.88        c1.244,0.975,3.147,0.611,4.366-0.395c1.218-1.006,1.914-2.495,2.571-3.932c-0.026,1.528,0.104,4.099,1.218,4.352        c2.214,0.237,3.108-4.065,3.072-6.679c-0.067-4.856-1.351-9.688-3.685-13.946c-0.883-3.962-1.948-7.879-3.21-11.738        c6.096,1.363,12.228,1.335,18.131,0.129c0.691-0.122,1.383-0.284,2.074-0.468c7.238-1.809,14.129-5.387,20.249-10.307        c0.671-0.529,1.321-1.077,1.952-1.627c1.565-1.362,3.05-2.826,4.493-4.35c7.685-8.213,12.767-18.541,15.613-29.438        c0.407-1.525,0.752-3.049,1.057-4.594c0.264-1.24,0.488-2.501,0.691-3.761C465.672,355.975,464.676,341.764,462.48,327.858z"/>
					</g>
				</g>
				<g>
					<g>
						<path style="fill:#F8627F;" d="M401.591,158.195c0,0,0.007-0.004,0.02-0.011c0.009,0.009,0.016,0.016,0.016,0.016        s0.002-0.017,0.003-0.028c1.796-1.017,69.454-39.593,46.042-64.949c-15.928-17.248-35.31,1.829-37.835,4.05        c-1.903-3.009-15.101-26.311-34.981-14.093c-29.401,18.069,25.283,73.517,26.74,74.987        C401.593,158.178,401.591,158.195,401.591,158.195z"/>
					</g>
				</g>
				<g>
					<g>
						<path style="fill:#F8627F;" d="M303.52,48.818c0,0,0.003-0.002,0.008-0.005c0.004,0.004,0.007,0.007,0.007,0.007        s0.001-0.007,0.001-0.012c0.769-0.436,29.749-16.959,19.721-27.819c-6.823-7.388-15.125,0.783-16.206,1.735        c-0.815-1.289-6.468-11.27-14.983-6.036c-12.593,7.74,10.829,31.489,11.453,32.119C303.521,48.81,303.52,48.818,303.52,48.818        z"/>
					</g>
				</g>
				<g>
					<g>
						<path style="fill:#F8627F;" d="M248.589,81.279c0,0,0.004-0.003,0.012-0.007c0.005,0.006,0.01,0.01,0.01,0.01        s0.001-0.01,0.002-0.017c1.097-0.621,42.416-24.18,28.118-39.665c-9.727-10.534-21.565,1.117-23.107,2.473        c-1.162-1.838-9.222-16.068-21.364-8.607c-17.955,11.035,15.44,44.898,16.331,45.796        C248.59,81.268,248.589,81.279,248.589,81.279z"/>
					</g>
				</g>
			</g>
			<g>
				<path style="fill:#FFFFFF;" d="M477.474,325.487c-5.616-35.523-18.859-64.535-38.423-84.339      c-1.288-9.311-3.157-18.404-5.571-27.108c-4.526-16.32-10.909-31.719-18.897-45.93c5.064-3.138,12.938-8.294,21.01-14.677      c19.219-15.193,29.609-29.283,31.764-43.075c1.591-10.178-1.36-19.664-8.533-27.435c-7.272-7.873-16.316-12.035-26.159-12.035      c-6.607,0-13.26,1.844-19.888,5.498c-9.623-9.552-19.341-11.903-26.577-11.903c-6.578,0-13.07,1.94-19.293,5.764      c-9.004,5.534-14.411,13.86-15.639,24.08c-0.239,1.991-0.285,4.019-0.193,6.067c-7.869-5.026-16.118-9.464-24.714-13.229      c4.109-7.745,9.138-15.001,14.944-21.55c1.103,0.143,2.217,0.215,3.335,0.215c14.668,0,26.601-11.933,26.601-26.599      c0-14.667-11.933-26.6-26.601-26.6c-2.709,0-5.324,0.41-7.789,1.166c-0.713-1.083-1.527-2.122-2.438-3.109      c-4.733-5.123-10.976-7.946-17.58-7.946c-2.416,0-4.803,0.356-7.159,1.065C304.718,0.66,300.003,0,296.928,0      c-4.445,0-8.757,1.263-12.809,3.753c-6.108,3.755-9.934,9.68-10.774,16.685c-0.088,0.733-0.128,1.468-0.146,2.205      c-1.828-0.394-3.71-0.594-5.634-0.594c-3.742,0-7.464,0.751-11.148,2.249c-6.221-4.874-12.42-6.161-17.228-6.161      c-5.127,0-10.134,1.479-14.877,4.395c-6.988,4.295-11.367,11.056-12.326,19.039c-0.673,5.604,0.464,11.42,2.619,17.073      c-4.387-6.592-9.291-12.838-14.686-18.614c0.01-0.266,0.014-0.533,0.014-0.799c0-14.667-11.933-26.6-26.601-26.6      c-14.668,0-26.601,11.933-26.601,26.6c0,14.667,11.933,26.599,26.601,26.599c1.118,0,2.231-0.072,3.335-0.215      c5.338,6.021,10.023,12.642,13.939,19.686c-12.209,4.988-23.957,11.388-34.954,19.032c-7.823-18.52-21.784-21.91-30.943-21.91      c-0.715,0-1.439,0.021-2.183,0.065c-14.488,0.86-29.398,9.5-33.421,30.368c-18.23,2.06-30.271,13.276-32.666,30.882      c-1.257,9.243,1.063,17.798,6.708,24.738c5.76,7.081,14.627,12.132,26.858,15.252c-8.222,17.979-13.775,37.043-16.575,56.919      c-19.831,19.816-33.239,48.998-38.906,84.84c-2.855,18.082-3.179,32.932-1.007,46.82c0.242,1.504,0.513,3.008,0.787,4.292      c0.391,1.965,0.809,3.776,1.26,5.467c3.656,14.006,10.299,26.445,19.276,36.041c1.931,2.042,3.75,3.798,5.549,5.362      c0.82,0.715,1.667,1.428,2.406,2.008c8.001,6.434,16.774,10.878,25.891,13.156c1.027,0.271,2.059,0.511,3.085,0.701      c3.879,0.78,7.821,1.176,11.717,1.176c0.413,0,0.823-0.005,1.235-0.014c-2.435,4.968-3.954,10.371-4.441,15.889      c-0.293,3.347-0.369,11.789,5.213,17.883c3.256,3.553,7.668,5.508,12.427,5.508c0.153,0,0.355-0.002,0.518-0.007      c1.972,0.677,4.047,1.034,6.125,1.034c3.596,0,7.056-1.046,10.021-3.035c3.599-2.421,6.125-6.069,7.288-10.181      c2.86-3.385,4.525-7.804,4.508-12.441c-0.01-4.638-1.583-8.289-2.769-10.638c-0.823-1.624-1.768-3.104-2.788-4.457      c1.437-3.551,3.061-7.022,4.865-10.4c7.735,6.192,15.915,11.736,24.463,16.573c2.831,1.598,5.715,3.124,8.639,4.57      l-4.436,22.609l-8.217,3.63c-1.953,0.861-7.898,3.486-10.585,10.479c-3.263,8.466,0.722,18.324,9.061,22.436      c2.754,1.36,5.801,2.051,9.061,2.051c1.216,0,2.473-0.096,3.838-0.293c8.354-1.192,16.321-5.064,22.455-10.913      c0.024-0.019,0.348-0.319,0.446-0.413c1.128-1.077,2.068-2.308,2.807-3.647c0.919-1.591,1.562-3.303,1.917-5.112l5.635-28.71      c9.428,2.555,19.051,4.306,28.789,5.237l15.112,30.307c2.572,5.156,7.835,8.406,13.584,8.406c0.072,0,0.141-0.002,0.211-0.002      c5.83-0.079,11.1-3.493,13.557-8.781l15.903-34.216c2.342-0.581,4.673-1.211,6.996-1.89l5.818,29.647      c0.355,1.809,0.998,3.522,1.917,5.115c0.739,1.336,1.679,2.569,2.807,3.644c0.079,0.077,0.42,0.391,0.482,0.449      c6.13,5.827,14.08,9.688,22.41,10.877c1.375,0.197,2.632,0.293,3.848,0.293c3.26,0,6.307-0.691,9.04-2.042      c8.358-4.115,12.348-13.972,9.088-22.436c-2.692-7.003-8.637-9.627-10.585-10.486l-8.222-3.632l-4.745-24.194      c11.959-6.218,23.271-13.811,33.745-22.661c3.059,2.516,6.242,4.702,9.52,6.537c-0.372,0.53-0.732,1.082-1.077,1.653      c-1.351,2.248-3.186,5.767-3.546,10.405c-0.348,4.633,0.988,9.159,3.579,12.739c0.861,4.191,3.119,8.023,6.542,10.709      c3.174,2.483,7.015,3.795,11.11,3.795c1.639,0,3.265-0.216,4.839-0.629c0.53,0.055,1.214,0.091,1.737,0.091      c4.525,0,8.795-1.806,12.027-5.081c5.592-5.669,6.091-13.776,6.048-16.997c-0.048-3.498-0.511-6.986-1.37-10.378      c0.093-0.017,0.189-0.036,0.283-0.055c1.029-0.19,2.049-0.424,2.903-0.652c9.303-2.327,18.077-6.77,25.941-13.099      c0.876-0.686,1.723-1.399,2.536-2.107c1.806-1.571,3.625-3.327,5.619-5.434c8.915-9.531,15.558-21.971,19.197-35.905      c0.468-1.763,0.885-3.574,1.236-5.34c0.317-1.483,0.585-2.987,0.842-4.575C480.653,358.422,480.329,343.571,477.474,325.487z       M293.245,76.403c-3.521-0.77-7.063-1.416-10.618-1.965c5.382-5.784,8.398-10.941,10.076-14.995      c1.402,1.428,3.086,2.604,5.009,3.4c0.816,0.338,1.653,0.575,2.496,0.764C297.682,67.756,295.343,72.021,293.245,76.403z"/>
			</g>
		</g>
		<g>
			<g>
				<g>
					<g>
						<g>
							<path style="fill:#FFE7E7;" d="M160.194,366.242c-3.456,14.373-11.771,32.63-24.294,44.929         c-0.874,0.874-1.789,1.708-2.724,2.501c-4.188,3.68-8.803,6.648-13.804,8.62c-0.712,0.285-1.444,0.549-2.155,0.793         c-0.793,0.264-1.606,0.508-2.399,0.711c-6.77,1.87-13.621,1.972-20.187,0.63c-0.691-0.122-1.383-0.284-2.074-0.467         c-7.238-1.809-14.129-5.387-20.249-10.307c-0.671-0.529-1.321-1.077-1.952-1.626c-1.566-1.362-3.05-2.826-4.493-4.351         c-7.685-8.213-12.767-18.541-15.613-29.438c-0.407-1.525-0.752-3.049-1.057-4.594c-0.264-1.24-0.488-2.501-0.691-3.761         c-2.175-13.906-1.179-28.117,1.017-42.022c5.082-32.142,17.829-64.954,43.892-84.552l7.441,13.702l1.098,2.012l33.484,61.641         l0.976,1.81l0.447,0.793l1.362,2.521l6.485,11.934l1.87,3.456L160.194,366.242z"/>
						</g>
					</g>
					<g>
						<g>
							<path style="fill:#FFACB3;" d="M101.948,259.021c-8.62,12.503-16.366,25.596-23.196,39.135         c-0.773,1.545-1.545,3.09-2.297,4.656c-11.669,23.989-20.513,49.381-26.205,75.424c-0.407-1.525-0.752-3.049-1.057-4.594         c6.119-26.307,15.41-51.902,27.547-76.034v-0.02c0.224-0.427,0.447-0.834,0.651-1.26         c6.933-13.621,14.78-26.775,23.461-39.318L101.948,259.021z"/>
						</g>
					</g>
					<g>
						<g>
							<path style="fill:#FFACB3;" d="M78.853,296.408l-0.101,1.748l-4.29,77.132l-0.183,3.07l-1.972,35.293         c-0.671-0.529-1.321-1.077-1.952-1.626l1.911-34.053l0.02-0.508l4.167-74.652l0.285-5.205v-0.041l0.081-1.281l0.569,0.041         L78.853,296.408z"/>
						</g>
					</g>
					<g>
						<g>
							<path style="fill:#FFACB3;" d="M138.217,325.785c-1.627,5.367-3.375,10.714-5.204,16c-0.813,2.338-1.647,4.656-2.501,6.994         v0.02c-9.575,26.266-21.57,51.557-35.882,75.628c-0.691-0.122-1.383-0.284-2.074-0.467         c15.613-26.206,28.483-53.834,38.464-82.621c0.082-0.224,0.163-0.467,0.244-0.711c1.972-5.733,3.842-11.527,5.591-17.362         L138.217,325.785z"/>
						</g>
					</g>
					<g>
						<g>
							<path style="fill:#FFACB3;" d="M136.408,322.471c-21.733,17.402-42.592,36.147-62.129,55.887         c-0.284,0.264-0.549,0.549-0.813,0.813l-1.199-1.199l-0.244-0.244c0.081-0.081,0.183-0.183,0.264-0.264         c0.711-0.732,1.443-1.464,2.175-2.175c19.212-19.293,39.664-37.61,60.97-54.627L136.408,322.471z"/>
						</g>
					</g>
					<g>
						<g>
							<path style="fill:#FFACB3;" d="M133.074,340.707c-0.02,0.366-0.041,0.712-0.061,1.077         c-1.484,27.507-6.872,55.074-15.796,81.3c-0.793,0.264-1.606,0.508-2.399,0.711c8.376-24.213,13.702-49.565,15.695-74.997         v-0.02c0.224-2.48,0.386-4.96,0.508-7.441c0.02-0.244,0.02-0.488,0.041-0.732l0.203,0.02L133.074,340.707z"/>
						</g>
					</g>
					<g>
						<g>
							<path style="fill:#FFACB3;" d="M146.573,341.175c-1.301,23.664-4.879,47.064-10.673,69.996         c-0.874,0.874-1.789,1.708-2.724,2.501c6.485-24.843,10.368-50.256,11.527-75.953L146.573,341.175z"/>
						</g>
					</g>
				</g>
				<g>
					<g>
						<g>
							<path style="fill:#FFE7E7;" d="M351.804,366.242c3.456,14.373,11.771,32.63,24.294,44.929         c0.874,0.874,1.789,1.708,2.724,2.501c4.188,3.68,8.803,6.648,13.804,8.62c0.712,0.285,1.444,0.549,2.155,0.793         c0.793,0.264,1.606,0.508,2.399,0.711c6.77,1.87,13.621,1.972,20.187,0.63c0.691-0.122,1.383-0.284,2.074-0.467         c7.238-1.809,14.129-5.387,20.249-10.307c0.671-0.529,1.321-1.077,1.952-1.626c1.566-1.362,3.05-2.826,4.493-4.351         c7.685-8.213,12.767-18.541,15.613-29.438c0.407-1.525,0.752-3.049,1.057-4.594c0.264-1.24,0.488-2.501,0.691-3.761         c2.175-13.906,1.179-28.117-1.017-42.022c-5.082-32.142-17.829-64.954-43.892-84.552l-7.441,13.702l-1.098,2.012         l-33.484,61.641l-0.976,1.81l-0.447,0.793l-1.362,2.521l-6.485,11.934l-1.87,3.456L351.804,366.242z"/>
						</g>
					</g>
					<g>
						<g>
							<path style="fill:#FFACB3;" d="M410.049,259.021c8.62,12.503,16.366,25.596,23.196,39.135         c0.773,1.545,1.545,3.09,2.297,4.656c11.669,23.989,20.513,49.381,26.205,75.424c0.407-1.525,0.752-3.049,1.057-4.594         c-6.12-26.307-15.41-51.902-27.547-76.034v-0.02c-0.224-0.427-0.447-0.834-0.651-1.26         c-6.933-13.621-14.78-26.775-23.461-39.318L410.049,259.021z"/>
						</g>
					</g>
					<g>
						<g>
							<path style="fill:#FFACB3;" d="M433.144,296.408l0.101,1.748l4.29,77.132l0.183,3.07l1.972,35.293         c0.671-0.529,1.321-1.077,1.952-1.626l-1.911-34.053l-0.02-0.508l-4.167-74.652l-0.284-5.205v-0.041l-0.082-1.281         l-0.569,0.041L433.144,296.408z"/>
						</g>
					</g>
					<g>
						<g>
							<path style="fill:#FFACB3;" d="M373.78,325.785c1.627,5.367,3.375,10.714,5.204,16c0.813,2.338,1.647,4.656,2.501,6.994v0.02         c9.575,26.266,21.57,51.557,35.882,75.628c0.691-0.122,1.383-0.284,2.074-0.467c-15.613-26.206-28.483-53.834-38.464-82.621         c-0.082-0.224-0.163-0.467-0.244-0.711c-1.972-5.733-3.842-11.527-5.591-17.362L373.78,325.785z"/>
						</g>
					</g>
					<g>
						<g>
							<path style="fill:#FFACB3;" d="M375.59,322.471c21.733,17.402,42.592,36.147,62.129,55.887         c0.284,0.264,0.549,0.549,0.813,0.813l1.199-1.199l0.244-0.244c-0.081-0.081-0.183-0.183-0.264-0.264         c-0.711-0.732-1.443-1.464-2.175-2.175c-19.212-19.293-39.664-37.61-60.97-54.627L375.59,322.471z"/>
						</g>
					</g>
					<g>
						<g>
							<path style="fill:#FFACB3;" d="M378.924,340.707c0.02,0.366,0.041,0.712,0.061,1.077c1.484,27.507,6.872,55.074,15.796,81.3         c0.793,0.264,1.606,0.508,2.399,0.711c-8.376-24.213-13.702-49.565-15.695-74.997v-0.02c-0.224-2.48-0.386-4.96-0.508-7.441         c-0.02-0.244-0.02-0.488-0.041-0.732l-0.203,0.02L378.924,340.707z"/>
						</g>
					</g>
					<g>
						<g>
							<path style="fill:#FFACB3;" d="M365.425,341.175c1.301,23.664,4.879,47.064,10.673,69.996         c0.874,0.874,1.789,1.708,2.724,2.501c-6.485-24.843-10.368-50.256-11.527-75.953L365.425,341.175z"/>
						</g>
					</g>
				</g>
			</g>
			<g>
				<g>
					<path style="fill:#FFE3B2;" d="M425.948,270.67c0,6.77-0.346,13.458-1.017,20.045c-0.366,3.72-0.854,7.4-1.443,11.039       c-0.874,5.631-1.992,11.181-3.354,16.63c-0.386,1.565-0.813,3.131-1.24,4.676c-2.053,7.481-4.554,14.76-7.461,21.814       c-5.652,13.763-12.848,26.632-21.326,38.363c-8.356,11.547-17.951,21.977-28.584,31.044       c-28.93,24.742-65.503,39.501-105.289,39.501c-28.381,0-55.115-7.502-78.616-20.777c-12.788-7.238-24.62-16.162-35.232-26.51       c-9.291-9.067-17.647-19.232-24.904-30.312c-4.92-7.542-9.352-15.512-13.174-23.827c-1.2-2.562-2.338-5.164-3.415-7.807       c-2.704-6.587-5.042-13.357-7.014-20.33c-4.798-16.935-7.38-34.927-7.38-53.549c0-7.929,0.468-15.756,1.383-23.42       c10.653-90.062,81.971-159.672,168.353-159.672c76.787,0,141.68,55.013,162.62,130.519c2.948,10.633,5.021,21.692,6.14,33.057       C425.623,257.557,425.948,264.083,425.948,270.67z"/>
				</g>
			</g>
			<g>
				<path style="fill:#4F021B;" d="M344.637,27.812c-6.307,0-11.419,5.113-11.419,11.419c0,2.03,0.535,3.932,1.464,5.584      c-19.146,18.108-32.447,41.876-37.726,67.785c-0.225,1.099,0.485,2.174,1.586,2.397c0.137,0.029,0.273,0.043,0.408,0.043      c0.945,0,1.794-0.664,1.989-1.629c5.096-25,17.902-47.943,36.339-65.456c1.988,1.679,4.555,2.695,7.361,2.695      c6.307,0,11.419-5.113,11.419-11.42C356.057,32.925,350.944,27.812,344.637,27.812z"/>
			</g>
			<g>
				<path style="fill:#4F021B;" d="M221.016,112.601c-5.281-25.909-18.582-49.677-37.728-67.785      c0.929-1.652,1.464-3.555,1.464-5.585c0-6.306-5.113-11.419-11.419-11.419c-6.307,0-11.419,5.113-11.419,11.419      c0,6.307,5.112,11.42,11.419,11.42c2.806,0,5.372-1.016,7.36-2.695c18.434,17.513,31.243,40.454,36.341,65.456      c0.197,0.965,1.044,1.629,1.989,1.629c0.134,0,0.271-0.015,0.408-0.043C220.531,114.775,221.241,113.7,221.016,112.601z"/>
			</g>
			<g>
				<g>
					<g>
						<g>
							<g>
								<path style="fill:#FFACB3;" d="M186.298,292.688c-0.651,32.67-27.649,58.632-60.34,57.981          c-9.006-0.183-17.504-2.358-25.067-6.119c-2.704-6.587-5.042-13.357-7.014-20.33c-4.798-16.935-7.38-34.927-7.38-53.549          c0-7.929,0.468-15.756,1.383-23.42c10.734-9.535,24.945-15.207,40.416-14.902          C160.987,232.999,186.948,260.017,186.298,292.688z"/>
							</g>
						</g>
						<g>
							<g>
								<path style="fill:#FFACB3;" d="M425.948,270.67c0,6.77-0.346,13.458-1.017,20.045c-0.366,3.72-0.854,7.4-1.443,11.039          c-0.874,5.631-1.992,11.181-3.354,16.63c-9.555,6.18-21.001,9.657-33.219,9.433c-32.67-0.651-58.652-27.669-58.002-60.339          c0.651-32.67,27.669-58.632,60.34-58.002c10.856,0.224,20.96,3.355,29.601,8.62c2.948,10.633,5.021,21.692,6.14,33.057          C425.623,257.557,425.948,264.083,425.948,270.67z"/>
							</g>
						</g>
					</g>
					<g>
						<g>
							<g>
								<g>
									<g>
										
											<ellipse transform="matrix(0.2062 -0.9785 0.9785 0.2062 -94.4646 372.7766)" style="fill:#FFFFFF;" cx="182.516" cy="244.608" rx="56.578" ry="56.578"/>
									</g>
								</g>
								<g>
									<g>
										
											<ellipse transform="matrix(0.2279 -0.9737 0.9737 0.2279 -91.9075 373.3133)" style="fill:#4F021B;" cx="189.437" cy="244.608" rx="46.543" ry="46.543"/>
									</g>
								</g>
							</g>
							<g>
								<g>
									<g>
										<circle style="fill:#FFFFFF;" cx="334.775" cy="243.224" r="56.578"/>
									</g>
								</g>
								<g>
									<g>
										<circle style="fill:#4F021B;" cx="327.854" cy="243.224" r="47.235"/>
									</g>
								</g>
							</g>
						</g>
						<g>
							<g>
								<path style="fill:#4F021B;" d="M260.651,302.535c-0.197,0-0.393-0.002-0.593-0.007c-9.709-0.262-16.148-5.741-17.664-15.037          c-0.199-1.219,0.629-2.37,1.85-2.569c1.207-0.185,2.37,0.629,2.569,1.85c1.156,7.072,5.902,11.079,13.365,11.28          c7.492,0.187,13.128-4.335,13.97-11.288c0.151-1.226,1.262-2.066,2.493-1.955c1.228,0.149,2.104,1.267,1.955,2.493          C277.499,296.343,270.161,302.535,260.651,302.535z"/>
							</g>
						</g>
					</g>
				</g>
				<g>
					<g>
						<g>
							<path style="fill:#4F021B;" d="M424.931,290.716c-1.118,11.12-3.151,21.936-6.038,32.345         c-43.018,24.417-93.559,40.01-146.64,44.828c-12.665,1.138-25.555,1.728-38.607,1.728c-41.392,0-84.675-5.774-129.34-17.26         c-4.188-8.986-7.664-18.378-10.429-28.137c62.027,17.85,121.228,24.355,176.18,19.375         C327.408,338.369,381.445,319.808,424.931,290.716z"/>
						</g>
					</g>
					<g>
						<g>
							<path style="fill:#4F021B;" d="M411.432,344.875c-5.652,13.763-12.848,26.632-21.326,38.363         c-36.106,16.122-76.197,26.531-117.853,30.312c-12.665,1.159-25.555,1.728-38.607,1.728c-29.519,0-60.014-2.927-91.261-8.782         c-9.291-9.067-17.647-19.232-24.904-30.312c53.468,13.032,104.639,17.423,152.577,13.072         C321.614,384.579,370.488,369.108,411.432,344.875z"/>
						</g>
					</g>
					<g>
						<g>
							<path style="fill:#4F021B;" d="M361.522,414.281c-28.93,24.742-65.503,39.501-105.289,39.501         c-28.381,0-55.115-7.502-78.616-20.777c31.898,3.965,62.799,4.615,92.44,1.931         C301.996,432.03,332.918,424.995,361.522,414.281z"/>
						</g>
					</g>
				</g>
			</g>
			<g>
				<g>
					<g>
						<g>
							<g>
								<g>
									<path style="fill:#F8627F;" d="M241.674,348.516c-0.291,0.299-0.58,0.586-0.891,0.858c-1.82,1.663-3.878,3.021-6.179,4.026           c-15.373,6.705-35.366-5.106-44.736-26.387l11.941-5.207l2.177-0.964l38.578-16.841c0,0,0.002-0.012,0.013-0.01           l2.223-0.957l0.881-0.389C253.305,320.259,251.274,338.801,241.674,348.516z"/>
								</g>
							</g>
							<g>
								<g>
									<path style="fill:#4F021B;" d="M241.674,348.516c-0.291,0.299-0.58,0.586-0.891,0.858           c-4.058-9.255-11.317-17.224-20.185-22.076c-5.754-3.137-12.224-5.001-18.789-5.492l2.177-0.964           c4.823,0.577,9.564,1.87,13.978,3.87c0.73,0.319,1.455,0.672,2.165,1.046c0.013-0.01,0.012,0.002,0.012,0.002           c0.34,0.168,0.667,0.345,1.006,0.524c4.327,2.351,8.265,5.434,11.668,9.039c0.368,0.383,0.722,0.777,1.075,1.181           C237.069,340.099,239.723,344.159,241.674,348.516z"/>
								</g>
							</g>
							<g>
								<g>
									<path style="fill:#4F021B;" d="M234.043,336.491l-0.155,0.013l-1.01,0.064c-0.021-0.415-0.043-0.83-0.065-1.245           c-0.175-4.756,0.385-9.546,1.605-14.18c0.172-0.693,0.378-1.38,0.585-2.068c1.662-5.405,4.227-10.548,7.56-15.073           c0,0,0.002-0.012,0.013-0.01l2.223-0.957C237.276,312.312,233.279,324.589,234.043,336.491z"/>
								</g>
							</g>
							<g>
								<g>
									<path style="fill:#4F021B;" d="M219.59,326.681c-0.033-0.005-0.064-0.012-0.096-0.022c-0.654-0.211-1.17-0.743-1.418-1.459           c-0.279-0.807-0.174-1.724,0.274-2.391c0.874-1.3,2.536-1.596,3.801-1.317c1.431,0.317,2.565,1.283,3.294,1.982           c0.208,0.199,0.41,0.402,0.611,0.609c-0.31-1.217-0.35-2.42-0.104-3.526c0.513-2.303,2.341-4.098,4.445-4.367           c1.052-0.136,2.26,0.33,3.319,1.275c1.119,0.997,1.805,2.319,1.79,3.45c-0.003,0.322-0.268,0.579-0.589,0.575           c-0.318-0.005-0.579-0.268-0.575-0.589c0.009-0.792-0.54-1.8-1.401-2.567c-0.796-0.709-1.693-1.079-2.397-0.989           c-1.601,0.205-3.055,1.662-3.456,3.465c-0.358,1.606,0.01,3.478,1.038,5.272c0.138,0.241,0.087,0.546-0.123,0.728           c-0.21,0.184-0.52,0.191-0.739,0.022c-0.659-0.508-1.233-1.101-1.788-1.673c-0.277-0.285-0.552-0.569-0.838-0.843           c-0.998-0.957-1.868-1.493-2.741-1.686c-1.042-0.225-2.098,0.111-2.582,0.83c-0.245,0.365-0.3,0.899-0.141,1.361           c0.074,0.215,0.262,0.597,0.676,0.731c0.306,0.099,0.474,0.427,0.375,0.733           C220.139,326.558,219.866,326.722,219.59,326.681z"/>
								</g>
							</g>
						</g>
						<g>
							<g>
								<path style="fill:#A44043;" d="M237.359,353.247c-1.634,0.599-3.355,0.961-5.092,1.069          c-0.935,0.058-2.052-0.053-2.516-0.868c-0.32-0.563-0.189-1.301,0.183-1.831c0.372-0.53,0.946-0.883,1.532-1.157          c1.619-0.758,3.467-1.019,5.232-0.738c-0.495-1.02-0.789-2.263-0.755-3.397c0.034-1.133,0.804-2.331,1.933-2.436          c0.822-0.076,1.607,0.443,2.08,1.119c0.473,0.677,0.692,1.493,0.903,2.291c0.335-0.701,0.525-1.569,0.839-2.28          c0.314-0.71,0.751-1.4,1.41-1.811c0.659-0.411,1.576-0.479,2.186,0.001c0.502,0.395,0.707,1.081,0.656,1.717          c-0.05,0.637-0.321,1.234-0.626,1.795C243.706,349.702,240.542,352.079,237.359,353.247z"/>
							</g>
						</g>
						<g>
							<g>
								<path style="fill:#A44043;" d="M260.262,411.918c-1.804-23.741-8.937-45.206-21.205-63.794l0.974-0.643          c12.377,18.758,19.574,40.407,21.392,64.35L260.262,411.918z"/>
							</g>
						</g>
					</g>
					<g>
						<g>
							<g>
								<g>
									<path style="fill:#F8627F;" d="M278.329,346.787c0.322,0.265,0.64,0.52,0.978,0.757c1.989,1.457,4.182,2.585,6.578,3.335           c16.007,5.004,34.607-8.899,41.622-31.068l-12.434-3.885l-2.268-0.723l-40.172-12.572c0,0-0.003-0.011-0.014-0.008           l-2.313-0.711l-0.918-0.291C263.712,319.953,267.735,338.167,278.329,346.787z"/>
								</g>
							</g>
							<g>
								<g>
									<path style="fill:#4F021B;" d="M278.329,346.787c0.322,0.265,0.64,0.52,0.978,0.757           c3.034-9.639,9.389-18.347,17.681-24.129c5.381-3.74,11.611-6.294,18.085-7.491l-2.268-0.723           c-4.732,1.094-9.305,2.893-13.478,5.358c-0.691,0.396-1.374,0.825-2.039,1.275c-0.014-0.008-0.011,0.003-0.011,0.003           c-0.32,0.203-0.626,0.415-0.943,0.63c-4.048,2.805-7.63,6.296-10.623,10.247c-0.324,0.421-0.634,0.85-0.941,1.29           C281.997,337.922,279.798,342.245,278.329,346.787z"/>
								</g>
							</g>
							<g>
								<g>
									<path style="fill:#4F021B;" d="M284.615,334.008l0.155-0.004l1.011-0.046c-0.023-0.415-0.047-0.83-0.07-1.245           c-0.341-4.747-1.415-9.448-3.128-13.923c-0.246-0.67-0.525-1.331-0.805-1.992c-2.237-5.194-5.342-10.03-9.145-14.168           c0,0-0.003-0.011-0.014-0.008l-2.313-0.711C278.787,310.32,284.088,322.093,284.615,334.008z"/>
								</g>
							</g>
							<g>
								<g>
									<path style="fill:#4F021B;" d="M297.923,322.693c0.032-0.008,0.062-0.019,0.093-0.032c0.627-0.281,1.083-0.865,1.252-1.603           c0.191-0.833-0.013-1.733-0.531-2.348c-1.009-1.198-2.694-1.313-3.921-0.898c-1.389,0.47-2.412,1.553-3.061,2.326           c-0.185,0.22-0.364,0.444-0.541,0.671c0.177-1.244,0.086-2.443-0.278-3.517c-0.759-2.234-2.77-3.821-4.891-3.861           c-1.06-0.022-2.211,0.573-3.162,1.626c-1.005,1.112-1.544,2.501-1.406,3.624c0.038,0.32,0.328,0.547,0.647,0.508           c0.315-0.04,0.547-0.329,0.508-0.648c-0.095-0.787,0.342-1.848,1.115-2.704c0.715-0.791,1.567-1.255,2.276-1.243           c1.613,0.03,3.217,1.322,3.81,3.071c0.529,1.558,0.366,3.458-0.462,5.353c-0.112,0.254-0.027,0.552,0.2,0.71           c0.228,0.16,0.537,0.133,0.737-0.057c0.6-0.577,1.107-1.228,1.597-1.857c0.244-0.313,0.487-0.625,0.743-0.928           c0.888-1.06,1.696-1.686,2.542-1.973c1.011-0.336,2.098-0.117,2.656,0.546c0.283,0.336,0.396,0.861,0.287,1.338           c-0.05,0.222-0.196,0.622-0.593,0.8c-0.294,0.131-0.425,0.476-0.294,0.769C297.364,322.63,297.653,322.763,297.923,322.693           z"/>
								</g>
							</g>
						</g>
						<g>
							<g>
								<path style="fill:#A44043;" d="M283.13,351.024c1.689,0.419,3.439,0.593,5.178,0.513c0.936-0.043,2.035-0.275,2.407-1.135          c0.257-0.594,0.047-1.314-0.38-1.8c-0.427-0.486-1.035-0.775-1.648-0.985c-1.691-0.578-3.556-0.638-5.281-0.168          c0.382-1.067,0.54-2.335,0.383-3.458c-0.156-1.123-1.051-2.23-2.185-2.213c-0.825,0.013-1.55,0.614-1.947,1.338          c-0.397,0.724-0.526,1.559-0.65,2.375c-0.409-0.66-0.692-1.503-1.08-2.176c-0.389-0.673-0.898-1.31-1.597-1.648          c-0.699-0.338-1.619-0.306-2.174,0.238c-0.456,0.447-0.585,1.151-0.467,1.779c0.119,0.627,0.452,1.192,0.816,1.717          C276.437,348.186,279.839,350.207,283.13,351.024z"/>
							</g>
						</g>
						<g>
							<g>
								<path style="fill:#A44043;" d="M265.538,411.868c-0.777-24,4.038-46.302,14.313-66.284l1.036,0.533          c-10.184,19.804-14.958,41.914-14.183,65.713L265.538,411.868z"/>
							</g>
						</g>
					</g>
					<g>
						<g>
							<g>
								<g>
									<path style="fill:#FFACB3;" d="M249.391,346.075c0.375,0.183,0.744,0.355,1.128,0.506c2.276,0.949,4.673,1.529,7.177,1.695           c16.735,1.101,31.546-16.784,33.153-39.981l-12.999-0.854l-2.375-0.17l-42.002-2.777c0,0-0.005-0.01-0.016-0.005           l-2.416-0.148l-0.96-0.068C228.876,323.429,237.068,340.186,249.391,346.075z"/>
								</g>
							</g>
							<g>
								<g>
									<path style="fill:#4F021B;" d="M249.391,346.075c0.375,0.183,0.744,0.355,1.128,0.506           c0.684-10.082,4.814-20.04,11.514-27.608c4.351-4.9,9.807-8.846,15.818-11.531l-2.375-0.17           c-4.342,2.176-8.365,5-11.841,8.376c-0.579,0.547-1.141,1.125-1.682,1.718c-0.016-0.005-0.01,0.006-0.01,0.006           c-0.264,0.273-0.511,0.551-0.769,0.834c-3.275,3.678-5.936,7.913-7.917,12.457c-0.216,0.485-0.416,0.975-0.611,1.475           C250.873,336.596,249.751,341.315,249.391,346.075z"/>
								</g>
							</g>
							<g>
								<g>
									<path style="fill:#4F021B;" d="M252.497,332.176l0.15-0.041l0.972-0.282c-0.12-0.398-0.241-0.795-0.361-1.193           c-1.446-4.534-3.596-8.851-6.313-12.798c-0.397-0.594-0.824-1.171-1.251-1.747c-3.395-4.522-7.55-8.493-12.219-11.621           c0,0-0.005-0.01-0.016-0.005l-2.416-0.148C241.265,310.522,249.185,320.719,252.497,332.176z"/>
								</g>
							</g>
							<g>
								<g>
									<path style="fill:#4F021B;" d="M262.773,318.051c0.029-0.016,0.056-0.033,0.083-0.053c0.544-0.42,0.849-1.095,0.84-1.853           c-0.011-0.854-0.42-1.681-1.068-2.157c-1.263-0.927-2.927-0.643-4.022,0.049c-1.239,0.783-1.979,2.076-2.428,2.98           c-0.128,0.257-0.249,0.517-0.368,0.78c-0.121-1.251-0.49-2.395-1.096-3.353c-1.262-1.993-3.591-3.063-5.662-2.603           c-1.036,0.228-2.015,1.076-2.691,2.324c-0.715,1.317-0.912,2.794-0.515,3.853c0.112,0.302,0.448,0.454,0.749,0.342           c0.297-0.112,0.454-0.448,0.341-0.749c-0.277-0.742-0.102-1.876,0.449-2.89c0.509-0.937,1.228-1.589,1.92-1.743           c1.575-0.35,3.438,0.529,4.425,2.09c0.881,1.389,1.168,3.275,0.809,5.312c-0.049,0.274,0.103,0.543,0.362,0.643           c0.259,0.102,0.553,0.003,0.703-0.229c0.448-0.702,0.787-1.453,1.115-2.18c0.164-0.362,0.327-0.723,0.504-1.077           c0.614-1.239,1.252-2.037,2.008-2.515c0.904-0.565,2.012-0.607,2.71-0.094c0.354,0.26,0.587,0.744,0.594,1.233           c0.003,0.228-0.044,0.651-0.388,0.917c-0.255,0.197-0.301,0.563-0.105,0.817           C262.215,318.121,262.527,318.182,262.773,318.051z"/>
								</g>
							</g>
						</g>
						<g>
							<g>
								<path style="fill:#A44043;" d="M255.053,349.065c1.74,0.011,3.482-0.232,5.153-0.719c0.9-0.262,1.913-0.745,2.073-1.669          c0.11-0.638-0.263-1.288-0.793-1.66c-0.53-0.372-1.189-0.51-1.833-0.57c-1.78-0.165-3.607,0.216-5.173,1.077          c0.121-1.127-0.024-2.397-0.44-3.451c-0.416-1.055-1.546-1.921-2.644-1.638c-0.799,0.206-1.362,0.961-1.578,1.758          c-0.215,0.797-0.145,1.639-0.073,2.461c-0.553-0.546-1.026-1.299-1.562-1.861c-0.536-0.562-1.181-1.062-1.94-1.226          c-0.759-0.164-1.645,0.083-2.057,0.742c-0.339,0.541-0.298,1.257-0.036,1.839c0.263,0.582,0.72,1.052,1.197,1.477          C247.881,347.88,251.663,349.045,255.053,349.065z"/>
							</g>
						</g>
						<g>
							<g>
								<path style="fill:#A44043;" d="M252.254,412.338c-6.398-23.146-6.96-45.954-1.667-67.79l1.132,0.273          c-5.244,21.642-4.688,44.253,1.658,67.205L252.254,412.338z"/>
							</g>
						</g>
					</g>
					<g>
						<g>
							<g>
								<path style="fill:#79E5EF;" d="M313.461,346.13l-36.933,77.408l-4.356,9.119l-7.169,15.017l-63.188-94.476          c0,0,28.458-8.865,69.103-9.526c0.644-0.017,1.288-0.034,1.949-0.034C285.427,343.52,299.122,344.181,313.461,346.13z"/>
							</g>
						</g>
						<g>
							<g>
								<path style="fill:#4F021B;" d="M276.529,423.538l-4.356,9.119c5.407-16.898,7.966-34.678,7.475-52.56          c-0.407-15.17-3.271-27.136-8.729-36.424c0.644-0.017,1.288-0.034,1.949-0.034c5.288,9.407,8.068,21.39,8.475,36.407          C281.749,394.758,280.105,409.385,276.529,423.538z"/>
							</g>
						</g>
					</g>
				</g>
				<g>
					<path style="fill:#32010E;" d="M239.332,368.971c-0.893-1.175-3.984,0.047-5.765,0.894c1.338-1.54,2.715-3.153,3.246-5.122       c0.531-1.97-0.058-4.402-1.869-5.341c-1.62-0.841-3.69-0.218-5.045,1.004c-0.893,0.805-1.535,1.826-2.095,2.898       c-0.255-1.278-1.443-2.798-2.414-3.477c-1.417-0.991-3.409-0.826-4.924,0.009c-1.515,0.834-2.638,2.227-3.617,3.653       c-2.378,3.462-3.409,7.802-4.169,12.061c-12.154,9.381-25.554,14.689-38.71,15.141c-19.454,0.66-37.816-10.585-43.745-26.75       c-0.374-1.025-1.509-1.54-2.524-1.171c-1.022,0.374-1.545,1.504-1.171,2.524c6.314,17.225,25.396,29.362,45.812,29.362       c0.585,0,1.173-0.012,1.761-0.031c13.719-0.472,27.637-5.862,40.254-15.399c6.382,0.548,12.9-0.505,18.768-3.076       C236.217,374.796,240.795,371.447,239.332,368.971z"/>
				</g>
				<g>
					<path style="fill:#32010E;" d="M394.557,340.596c-0.967-0.173-1.869,0.463-2.039,1.42       c-2.709,15.131-17.141,27.867-34.314,30.288c-11.633,1.638-24.236-0.951-36.374-7.317c-1.327-3.626-2.906-7.281-5.533-9.957       c-1.082-1.102-2.284-2.152-3.745-2.651c-1.461-0.499-3.237-0.336-4.33,0.755c-0.748,0.747-1.558,2.267-1.584,3.43       c-0.658-0.856-1.381-1.654-2.29-2.223c-1.381-0.865-3.297-1.092-4.591-0.102c-1.446,1.107-1.587,3.336-0.816,4.985       c0.772,1.649,2.232,2.854,3.646,4c-1.697-0.469-4.603-1.064-5.206,0.107c-0.902,2.402,3.64,4.638,6.567,5.35       c5.557,1.352,11.449,1.268,16.974-0.201c10.031,5.133,20.381,7.819,30.322,7.819c2.512,0,5-0.17,7.449-0.516       c18.634-2.625,34.314-16.566,37.284-33.148C396.147,341.681,395.512,340.767,394.557,340.596z"/>
				</g>
			</g>
			<g>
				<g>
					<g>
						<path style="fill:#4F021B;" d="M196.963,436.366l-9.233,47.726c-5.153,2.276-10.305,4.551-15.458,6.827        c-1.026,0.453-2.148,1.003-2.552,2.05c-0.493,1.277,0.394,2.764,1.622,3.37c1.228,0.606,2.674,0.534,4.029,0.341        c5.314-0.758,10.358-3.242,14.223-6.965c0.062-0.046,0.114-0.101,0.17-0.156c0.054-0.053,0.114-0.101,0.168-0.155        c-0.001-0.01-0.003-0.023-0.004-0.034c0.147-0.196,0.269-0.414,0.319-0.671l10.01-51.688L196.963,436.366z"/>
					</g>
				</g>
				<g>
					<g>
						<path style="fill:#4F021B;" d="M317.223,428.349l10.936,55.744c5.153,2.276,10.305,4.551,15.458,6.827        c1.026,0.453,2.148,1.003,2.552,2.05c0.492,1.277-0.394,2.764-1.622,3.37c-1.228,0.606-2.674,0.534-4.029,0.341        c-5.313-0.758-10.358-3.242-14.223-6.965c-0.062-0.046-0.114-0.101-0.169-0.156c-0.055-0.053-0.114-0.101-0.168-0.155        c0-0.01,0.003-0.023,0.004-0.034c-0.147-0.196-0.268-0.414-0.319-0.671l-11.713-59.705L317.223,428.349z"/>
					</g>
				</g>
				<g>
					<path style="fill:#4F021B;" d="M123.301,443.945c5.192-16.678,13.948-32.253,25.546-45.316l-2.279-2.025       c-12.158,13.695-21.275,30.081-26.546,47.619c-2.587,4.04-4.196,8.706-4.616,13.486c-0.229,2.604,0.345,6.961,2.57,6.888       c1.131-0.17,1.45-2.725,1.537-4.25c0.549,1.482,1.133,3.018,2.274,4.111c1.141,1.093,3.013,1.597,4.325,0.716       c1.174-0.788,1.52-2.426,1.194-3.802c-0.217-0.914-0.678-1.737-1.204-2.523c0.962,0.315,2.445,0.085,3.274-0.326       c1.201-0.595,1.829-2.009,1.826-3.349c-0.003-1.34-0.533-2.621-1.137-3.817C128.574,448.41,125.953,446.07,123.301,443.945z"/>
				</g>
				<g>
					<path style="fill:#4F021B;" d="M402.525,436.191c-3.963-17.882-11.845-34.897-22.955-49.454l-2.423,1.852       c10.597,13.883,18.179,30.061,22.129,47.079c-2.802,1.923-5.589,4.064-7.292,6.893c-0.691,1.147-1.314,2.386-1.416,3.722       c-0.102,1.336,0.419,2.793,1.573,3.475c0.797,0.471,2.259,0.81,3.242,0.567c-0.583,0.745-1.104,1.531-1.388,2.427       c-0.427,1.348-0.203,3.007,0.91,3.88c1.243,0.975,3.147,0.611,4.366-0.395c1.219-1.006,1.914-2.495,2.572-3.932       c-0.026,1.528,0.103,4.099,1.218,4.352c2.215,0.237,3.108-4.065,3.072-6.679C406.065,445.182,404.806,440.411,402.525,436.191z       "/>
				</g>
				<g>
					<g>
						<polygon style="fill:#4F021B;" points="244.75,444.53 268.263,491.683 290.015,444.88       "/>
					</g>
				</g>
			</g>
			<g>
				<g>
					<g>
						<path style="fill:#F8627F;" d="M447.671,93.223c-15.928-17.248-35.31,1.829-37.835,4.05        c-1.903-3.009-15.101-26.311-34.981-14.093c-29.401,18.069,25.283,73.517,26.74,74.987c-0.001,0.01-0.003,0.027-0.003,0.027        s0.007-0.004,0.02-0.011c0.009,0.009,0.016,0.016,0.016,0.016s0.002-0.017,0.003-0.028        C403.425,157.156,471.083,118.579,447.671,93.223z"/>
					</g>
				</g>
				<g>
					<g>
						<path style="fill:#F8627F;" d="M323.257,20.989c-6.822-7.388-15.124,0.783-16.206,1.735        c-0.815-1.289-6.468-11.27-14.983-6.036c-12.593,7.74,10.829,31.489,11.453,32.119c0,0.004-0.001,0.012-0.001,0.012        s0.003-0.002,0.008-0.004c0.004,0.004,0.007,0.007,0.007,0.007s0.001-0.007,0.001-0.012        C304.305,48.372,333.285,31.849,323.257,20.989z"/>
					</g>
				</g>
				<g>
					<g>
						<path style="fill:#F8627F;" d="M276.73,41.6c-9.727-10.534-21.565,1.117-23.107,2.473c-1.162-1.838-9.222-16.069-21.363-8.607        c-17.956,11.035,15.44,44.898,16.33,45.795c0,0.006-0.002,0.017-0.002,0.017s0.004-0.003,0.012-0.006        c0.005,0.006,0.01,0.01,0.01,0.01s0.001-0.01,0.002-0.017C249.709,80.644,291.028,57.085,276.73,41.6z"/>
					</g>
				</g>
				<g>
					<g>
						<path style="fill:#F8627F;" d="M123.426,97.643c-22.582,1.341-20.197,27.436-20.083,30.674        c-3.405-0.419-28.832-4.81-31.863,17.469c-4.483,32.947,70.235,26.044,72.22,25.855c0.007,0.007,0.018,0.019,0.018,0.019        s0.001-0.008,0.004-0.021c0.012-0.001,0.021-0.002,0.021-0.002s-0.011-0.012-0.019-0.019        C144.064,169.659,156.621,95.675,123.426,97.643z"/>
					</g>
				</g>
			</g>
			<g>
				<g>
					<g>
						<path style="fill:#FFFFFF;" d="M358.701,157.308c2.613,1.208,5.952,1.93,7.715-0.074c1.085-1.233,1.192-3.201,0.674-4.933        c-0.518-1.732-1.573-3.282-2.652-4.759c-3.312-4.535-7.218-8.911-12.151-11.199c-4.813-2.233-10.885-0.522-9.156,5.674        C345.048,148.885,352.729,154.547,358.701,157.308z"/>
					</g>
				</g>
				<g>
					<g>
						<path style="fill:#FFFFFF;" d="M378.747,163.916c1.57,2.29,1.186,5.281-0.857,6.681s-4.971,0.679-6.541-1.612        c-1.57-2.29-1.186-5.282,0.857-6.682C374.249,160.904,377.177,161.625,378.747,163.916z"/>
					</g>
				</g>
			</g>
		</g>
	</g>
</g>















</svg>
