<?xml version="1.0" encoding="iso-8859-1"?>
<!-- Generator: Adobe Illustrator 19.0.0, SVG Export Plug-In . SVG Version: 6.00 Build 0)  -->
<svg version="1.1" id="Capa_1" xmlns="http://www.w3.org/2000/svg" xmlns:xlink="http://www.w3.org/1999/xlink" x="0px" y="0px"
	 viewBox="0 0 480 480" style="enable-background:new 0 0 480 480;" xml:space="preserve">
<linearGradient id="SVGID_1_" gradientUnits="userSpaceOnUse" x1="-26.8046" y1="556.975" x2="-26.8046" y2="619.824" gradientTransform="matrix(8 0 0 -8 454.4364 4941)">
	<stop  offset="0" style="stop-color:#006DF0"/>
	<stop  offset="1" style="stop-color:#00E7F0"/>
</linearGradient>
<path style="fill:url(#SVGID_1_);" d="M440.417,300.8c11.488-13.43,9.913-33.63-3.518-45.118
	c-5.801-4.962-13.185-7.686-20.818-7.682c-5.141,0.027-10.198,1.304-14.736,3.72c-3.851-3.883-7.872-7.768-12.064-11.656
	c9.561-8.787,18.641-18.083,27.2-27.848c32.8-37.76,43.96-70.496,31.448-92.176c-6.48-10.307-16.879-17.528-28.8-20
	c-24.584-6.624-61.76-2.256-104.376,10.896c-2.83-12.696-6.347-25.229-10.536-37.544C287.913,26.072,265.137,0,240.081,0h-0.064
	c-12.28,0-30.16,6.472-47.472,36.08c-16.432-3.053-32.445,7.054-36.76,23.2c-3.679,13.493,1.931,27.802,13.8,35.2
	c-1.44,5.269-2.795,10.696-4.064,16.28c-12.386-3.876-24.972-7.081-37.704-9.6c-49.08-9.528-83.024-2.848-95.536,18.84
	c-5.702,10.759-6.771,23.379-2.96,34.944c6.568,24.6,28.936,54.608,61.6,84.936c-9.581,8.807-18.68,18.124-27.256,27.912
	c-32.8,37.744-43.952,70.488-31.448,92.168c6.12,10.664,20.656,22.96,55.016,23.144c5.89,16.663,24.172,25.396,40.835,19.506
	c7.193-2.542,13.24-7.571,17.053-14.178c2.548-4.466,3.97-9.485,4.144-14.624c5.285-1.392,10.661-2.933,16.128-4.624
	c2.829,12.669,6.34,25.175,10.52,37.464C192.249,453.928,215.025,480,240.081,480c12.147-0.463,23.585-5.843,31.688-14.904
	c18.016-17.992,32.8-52.368,42.744-95.848c12.414,3.896,25.03,7.117,37.792,9.648c13.021,2.655,26.264,4.07,39.552,4.224
	c27.8,0,47.2-7.832,56-23.072C454.048,349.384,457.44,330.648,440.417,300.8L440.417,300.8z M432.081,280
	c0.044,5.121-2.414,9.94-6.584,12.912c-7.144,5.2-17.152,3.624-22.352-3.52c-1.986-2.729-3.059-6.017-3.064-9.392
	c-0.001-4.65,2.047-9.064,5.6-12.064c2.858-2.557,6.565-3.96,10.4-3.936C424.917,264,432.081,271.163,432.081,280z M391.617,112.8
	c7.871-0.119,15.723,0.787,23.36,2.696c7.776,1.444,14.647,5.949,19.072,12.504c8.712,15.096-2.096,41.952-29.664,73.704
	c-8.515,9.696-17.561,18.913-27.096,27.608c-16.276-13.946-33.324-26.964-51.064-38.992c-1.532-21.473-4.291-42.842-8.264-64
	C341.716,118.221,366.534,113.666,391.617,112.8L391.617,112.8z M276.081,302.352c-11.944,6.888-24,13.312-36,19.28
	c-12-5.952-24-12.352-36-19.28s-23.592-14.168-34.704-21.528c-0.824-13.344-1.296-26.968-1.296-40.824s0.472-27.432,1.312-40.8
	c11.136-7.376,22.696-14.6,34.688-21.52c11.992-6.92,24.056-13.36,36-19.296c12,5.96,24,12.36,36,19.296s23.52,14.12,34.704,21.552
	c0.8,13.336,1.296,26.952,1.296,40.8s-0.472,27.512-1.296,40.8C299.641,288.208,288.081,295.424,276.081,302.352L276.081,302.352z
	 M309.216,300.888c-1.6,16.664-3.752,32.6-6.512,47.568c-14.448-5.104-29.36-11.2-44.48-18.152
	c8.648-4.504,17.288-9.144,25.856-14.096S301.016,306.104,309.216,300.888L309.216,300.888z M221.88,330.296
	c-15.08,6.888-29.992,13.008-44.424,18.112c-2.8-15.04-4.944-31-6.504-47.528c8.176,5.216,16.52,10.4,25.128,15.328
	S213.281,325.808,221.88,330.296L221.88,330.296z M152.784,269.432c-13.648-9.688-26.4-19.552-37.944-29.424
	c11.64-9.968,24.408-19.816,37.968-29.448c-0.432,9.736-0.728,19.544-0.728,29.44S152.368,259.728,152.784,269.432z
	 M170.984,179.088c1.6-16.504,3.728-32.48,6.528-47.528c14.4,5.096,29.312,11.2,44.408,18.128
	c-8.608,4.48-17.232,9.136-25.84,14.104C187.472,168.76,179.168,173.88,170.984,179.088L170.984,179.088z M258.184,149.656
	c15.2-6.984,30.136-13.04,44.496-18.144c2.808,15.072,4.96,31.056,6.52,47.624c-8.216-5.24-16.56-10.4-25.128-15.344
	s-17.248-9.632-25.88-14.136H258.184z M327.368,210.616c13.512,9.616,26.312,19.472,37.912,29.384
	c-11.632,9.952-24.376,19.784-37.912,29.392c0.432-9.656,0.712-19.448,0.712-29.392s-0.288-19.688-0.704-29.384H327.368z
	 M178.72,53.728c4.403-2.606,9.8-2.904,14.464-0.8c8.083,3.57,11.742,13.017,8.172,21.1c-1.37,3.103-3.692,5.69-6.628,7.388
	c-4.035,2.318-8.886,2.745-13.264,1.168c-3.641-1.194-6.706-3.701-8.6-7.032C168.468,67.907,171.087,58.145,178.72,53.728z
	 M184.72,99.496h1.184c0,0,0.616,0.072,0.928,0.072c0.48,0,0.96-0.072,1.448-0.096c0.608,0,1.216-0.056,1.824-0.112
	c0.872-0.096,1.728-0.24,2.592-0.408c0.592-0.112,1.184-0.2,1.776-0.352c0.912-0.224,1.816-0.528,2.712-0.84
	c0.504-0.176,1.008-0.312,1.504-0.512c1.377-0.553,2.714-1.203,4-1.944c1.865-1.079,3.617-2.341,5.232-3.768
	c0.152-0.136,0.264-0.304,0.416-0.448c9.1-8.268,12.571-21.067,8.896-32.8c-0.08-0.272-0.096-0.544-0.184-0.8
	c-0.687-2.04-1.574-4.007-2.648-5.872c-0.911-1.55-1.949-3.022-3.104-4.4c-0.384-0.464-0.8-0.864-1.248-1.304
	c-0.797-0.885-1.644-1.724-2.536-2.512c-0.16-0.136-0.28-0.304-0.44-0.432C217.568,25.512,229.112,16,240.032,16h0.048
	c17.432,0,35.288,22.8,48.992,62.536c4.158,12.248,7.63,24.718,10.4,37.352c-20.227,7.093-40.037,15.322-59.336,24.648
	c-19.312-9.391-39.144-17.671-59.4-24.8C181.984,110.2,183.28,104.752,184.72,99.496z M44.776,150.816
	c-2.622-7.48-2.135-15.698,1.352-22.816c5.784-10.016,20.352-15.2,41.6-15.2c12.464,0.164,24.884,1.503,37.096,4
	c12.657,2.527,25.164,5.753,37.464,9.664c-3.939,21.066-6.69,42.337-8.24,63.712c-17.815,12.055-34.926,25.119-51.248,39.128
	C71.808,200.976,50.76,173.232,44.776,150.816L44.776,150.816z M131.28,380.424c-4.421,7.649-14.206,10.267-21.856,5.848
	c-4.457-2.516-7.405-7.05-7.896-12.144c-0.361-3.369,0.353-6.766,2.04-9.704c0.669-1.127,1.475-2.167,2.4-3.096
	c0.232-0.24,0.472-0.448,0.712-0.672c0.761-0.698,1.589-1.32,2.472-1.856c0.216-0.136,0.416-0.28,0.64-0.4
	c2.263-1.225,4.787-1.889,7.36-1.936h0.8c0.988,0.037,1.971,0.166,2.936,0.384c0.32,0.072,0.64,0.128,0.952,0.224
	c5.821,1.588,10.192,6.411,11.2,12.36C133.842,373.187,133.214,377.107,131.28,380.424L131.28,380.424z M146.064,358.192
	c-0.73-1.464-1.57-2.871-2.512-4.208c-0.152-0.208-0.336-0.392-0.488-0.6c-1.062-1.427-2.239-2.765-3.52-4
	c-0.384-0.376-0.8-0.736-1.184-1.096c-1.525-1.359-3.178-2.568-4.936-3.608c-1.867-1.076-3.837-1.963-5.88-2.648
	c-0.264-0.088-0.536-0.104-0.8-0.184c-11.685-3.659-24.433-0.229-32.704,8.8c-0.176,0.192-0.392,0.336-0.56,0.528
	c-1.427,1.615-2.689,3.367-3.768,5.232c-0.893,1.562-1.65,3.197-2.264,4.888c-0.2,0.544-0.32,1.112-0.488,1.664
	c-0.376,1.163-0.685,2.346-0.928,3.544c-0.04,0.192-0.112,0.376-0.144,0.568c-20.336-0.344-34.336-5.6-39.784-15.104
	c-8.712-15.096,2.096-41.952,29.664-73.704c8.534-9.717,17.602-18.952,27.16-27.664c16.249,13.974,33.276,27.016,51,39.064
	c1.53,21.419,4.281,42.734,8.24,63.84c-5.448,1.696-10.824,3.296-16.088,4.688L146.064,358.192z M260.464,453.736
	c-5.15,6.009-12.491,9.705-20.384,10.264c-17.432,0-35.288-22.8-48.992-62.536c-4.154-12.222-7.626-24.665-10.4-37.272
	c20.215-7.127,40.014-15.383,59.304-24.728c19.346,9.388,39.21,17.668,59.496,24.8c-9.072,40.976-22.608,73.08-39,89.472H260.464z
	 M434.04,352c-8.712,15.096-37.4,19.2-78.656,11.2c-12.685-2.531-25.219-5.765-37.544-9.688c3.975-21.058,6.755-42.324,8.328-63.696
	c17.796-12.034,34.89-25.074,51.2-39.056c4.208,3.864,8.272,7.736,12.112,11.592c-0.907,1.364-1.709,2.795-2.4,4.28
	c-0.104,0.224-0.168,0.464-0.264,0.688c-0.706,1.643-1.273,3.342-1.696,5.08c-0.128,0.512-0.248,1.024-0.352,1.544
	c-3.522,17.138,7.516,33.887,24.654,37.409c2.19,0.45,4.422,0.667,6.658,0.647c1.803-0.01,3.601-0.173,5.376-0.488
	c0.568-0.096,1.112-0.28,1.672-0.408c1.207-0.257,2.398-0.583,3.568-0.976c0.176-0.064,0.36-0.088,0.536-0.152
	C437.096,327.768,439.536,342.52,434.04,352L434.04,352z"/>
<g>
</g>
<g>
</g>
<g>
</g>
<g>
</g>
<g>
</g>
<g>
</g>
<g>
</g>
<g>
</g>
<g>
</g>
<g>
</g>
<g>
</g>
<g>
</g>
<g>
</g>
<g>
</g>
<g>
</g>
</svg>
